<svg width="512" height="512" viewBox="0 0 512 512" fill="none" xmlns="http://www.w3.org/2000/svg">
<g clip-path="url(#clip0_6_8)">
<path d="M507.675 191.611C499.377 187.088 490.841 181.239 488.56 178.57C488.501 178.009 488.448 177.381 488.391 176.698C487.386 164.848 485.517 142.901 438.79 122.969C437.503 120.29 435.741 117.745 433.447 115.607C427.807 110.352 420.427 108.857 412.666 111.388C406.102 113.532 401.932 116.728 399.269 119.98C391.161 120.57 385.114 122.795 379.697 124.797C374.066 126.876 369.204 128.672 362.162 128.672C358.788 128.672 354.633 125.914 349.824 122.72C341.945 117.489 332.138 110.978 317.929 110.978C301.941 110.978 290.893 116.183 280.207 121.218C265.488 128.153 251.588 134.702 222.243 128.833C187.063 121.798 130.892 135.127 110.19 147.547C91.193 158.946 69.863 193.224 46.791 249.433C32.159 285.077 21.326 318.772 18.682 327.173L2.42899 343.42C0.0839932 345.767 -0.639007 349.285 0.592993 352.365L18.286 396.598C19.547 399.747 22.596 401.812 25.987 401.812H52.527C57.108 401.812 60.821 398.1 60.821 393.518C60.821 388.937 57.109 385.224 52.527 385.224H51.973V374.736C78.375 371.487 111.198 354.006 128.917 337.693C131.247 335.549 133.548 333.555 135.83 331.677C138.307 336.452 141.431 340.596 144.495 344.627C152.077 354.606 159.239 364.033 159.239 384.671C159.239 389.916 163.263 391.991 166.497 393.658C168.026 394.446 170.135 395.491 172.765 396.765C177.236 398.93 181.707 401.027 181.707 401.027C182.808 401.543 184.01 401.811 185.228 401.811H229.461C234.042 401.811 237.755 398.099 237.755 393.517C237.755 388.936 234.043 385.223 229.461 385.223H212.531C214.926 376.713 220.277 366.677 225.866 356.206C229.286 349.797 232.866 343.084 236.071 336.157C238.766 343.907 242.547 352.05 247.708 360.5V378.416C247.708 384.666 250.142 390.543 254.56 394.959C258.979 399.377 264.855 401.811 271.104 401.811H317.927C322.508 401.811 326.221 398.099 326.221 393.517C326.221 388.936 322.509 385.223 317.927 385.223H309.501L316.818 319.375C319.806 317.845 324.088 315.487 329.075 312.261C333.57 326.294 348.737 363.797 384.957 374.535L419.111 400.15C420.546 401.227 422.292 401.809 424.087 401.809H477.167C481.748 401.809 485.461 398.097 485.461 393.515C485.461 388.934 481.749 385.221 477.167 385.221H468.32C461.504 385.221 453.125 368.645 445.022 352.612C437.365 337.464 427.92 318.779 414.702 302.131C414.698 290.256 413.985 258.064 406.77 242.57H441.781C444.316 242.57 446.711 241.411 448.284 239.424C452.796 233.723 462.514 233.723 468.32 233.723C489.398 233.723 498.324 229.982 499.9 229.231C501.96 228.249 503.526 226.462 504.227 224.289L511.6 201.435C512.822 197.645 511.173 193.519 507.675 191.611ZM211.231 348.398C204.352 361.288 197.787 373.6 195.492 385.225H187.08C182.998 383.299 178.652 381.205 175.704 379.731C174.532 356.741 165.255 344.531 157.703 334.593C154.288 330.099 151.295 326.147 149.489 321.779C174.683 305.984 198.603 304.505 229.286 304.499C226.917 318.965 218.974 333.888 211.231 348.398ZM430.216 360.098C435.014 369.59 439.401 378.27 444.067 385.225H426.85L393.675 360.344C392.832 359.713 391.879 359.247 390.863 358.973C355.295 349.36 343.795 303.571 343.685 303.124C343.581 302.689 343.435 302.276 343.269 301.874C355.494 291.779 368.605 277.618 377.029 258.98C381.229 257.765 387.372 255.609 392.914 252.215C396.404 262.416 398.307 285.709 398.098 304.962C398.077 306.92 398.75 308.825 399.998 310.334C413.048 326.133 422.17 344.178 430.216 360.098ZM489.753 215.126C486.145 215.99 479.285 217.139 468.318 217.139C461.411 217.139 447.76 217.139 438.188 225.986H406.065C399.942 225.986 394.626 221.629 393.425 215.625L389.754 197.266C388.855 192.775 384.486 189.868 379.995 190.759C375.504 191.658 372.59 196.027 373.488 200.518L377.159 218.877C378.532 225.738 382.255 231.658 387.382 235.866C383.946 238.825 376.503 242.232 369.205 243.877C366.537 244.47 364.332 246.341 363.311 248.876C347.701 287.647 306.194 306.109 305.788 306.286C303.053 307.467 301.163 310.024 300.835 312.984L292.808 385.226H271.101C269.282 385.226 267.572 384.517 266.286 383.23C265 381.946 264.292 380.237 264.292 378.417V358.132C264.292 356.559 263.845 355.02 263.003 353.691C227.796 298.152 260.721 259.179 262.22 257.457C265.24 254.03 264.923 248.804 261.503 245.77C258.075 242.73 252.833 243.042 249.795 246.468C249.34 246.98 238.6 259.249 233.252 279.736C232.572 282.341 231.967 285.163 231.48 288.171C230.832 288.008 230.156 287.912 229.459 287.912C187.911 287.912 155.573 290.608 117.682 325.49C96.115 345.346 62.006 358.685 43.68 358.685C39.099 358.685 35.386 362.397 35.386 366.979V385.225H31.602L18.025 351.284L31.852 337.458C32.811 336.498 33.521 335.318 33.918 334.021C46.58 292.667 86.499 181.106 118.721 161.773C134.846 152.098 187.042 138.708 218.988 145.1C253.702 152.041 271.538 143.639 287.275 136.226C297.136 131.58 305.651 127.568 317.927 127.568C327.131 127.568 333.697 131.926 340.648 136.542C347.105 140.828 353.781 145.261 362.16 145.261C372.167 145.261 379.22 142.657 385.441 140.359C388.587 139.198 391.509 138.136 394.705 137.402C395.646 144.186 398.877 149.457 399.412 150.29C401.001 152.766 403.692 154.125 406.435 154.125C407.963 154.125 409.507 153.704 410.886 152.819C414.742 150.347 415.88 145.241 413.406 141.386C412.263 139.541 410.254 134.762 411.351 131.761C412.205 129.421 415.336 127.966 417.815 127.157C420.295 126.346 421.306 126.997 422.059 127.669C424.334 129.699 425.137 133.738 424.888 134.954C423.778 139.398 426.479 143.901 430.923 145.013C434.391 145.878 437.884 144.419 439.784 141.63C469.987 156.241 471.114 169.246 471.864 178.099C471.98 179.466 472.09 180.756 472.281 182.047C472.651 184.546 473.584 190.837 493.741 202.774L489.753 215.126Z" fill="#EFD31A"/>
</g>
<defs>
<clipPath id="clip0_6_8">
<rect width="512" height="512" fill="white"/>
</clipPath>
</defs>
</svg>
